HIERARCHY
ROOT Hips
{
  OFFSET 5.80788e-005 67.184 3.4734
  CHANNELS 6 Xposition Yposition Zposition Zrotation Xrotation Yrotation
  JOINT Chest
  {
    OFFSET 0 8.7983 -4.7612
    CHANNELS 6 Xposition Yposition Zposition Zrotation Xrotation Yrotation
    JOINT Chest2
    {
      OFFSET 0 8.0291 0.4195
      CHANNELS 6 Xposition Yposition Zposition Zrotation Xrotation Yrotation
      JOINT Chest3
      {
        OFFSET 0 9.9351 -2.2114
        CHANNELS 6 Xposition Yposition Zposition Zrotation Xrotation Yrotation
        JOINT Neck
        {
          OFFSET 0 22.3885 -0.4656
          CHANNELS 6 Xposition Yposition Zposition Zrotation Xrotation Yrotation
          JOINT Head
          {
            OFFSET -0.0001 12.643 3.4389
            CHANNELS 6 Xposition Yposition Zposition Zrotation Xrotation Yrotation
            End Site
            {
              OFFSET 0.0001 17.6655 0.5274
            }
          }
        }
        JOINT LeftCollar
        {
          OFFSET 2.2603 21.606 7.4023
          CHANNELS 6 Xposition Yposition Zposition Zrotation Xrotation Yrotation
          JOINT LeftShoulder
          {
            OFFSET 13.5163 -1.1332 -5.0146
            CHANNELS 6 Xposition Yposition Zposition Zrotation Xrotation Yrotation
            JOINT LeftElbow
            {
              OFFSET -0.0995 -28.05 -0.2431
              CHANNELS 6 Xposition Yposition Zposition Zrotation Xrotation Yrotation
              JOINT LeftWrist
              {
                OFFSET 0.0679 -23.3996 -0.1402
                CHANNELS 6 Xposition Yposition Zposition Zrotation Xrotation Yrotation
                JOINT LeftFinger1
                {
                  OFFSET 0.7932 -9.069 2.5189
                  CHANNELS 6 Xposition Yposition Zposition Zrotation Xrotation Yrotation
                  JOINT LeftFinger11
                  {
                    OFFSET -0.8272 -3.3923 0.5977
                    CHANNELS 6 Xposition Yposition Zposition Zrotation Xrotation Yrotation
                    JOINT LeftFinger12
                    {
                      OFFSET -0.5649 -2.3158 0.4082
                      CHANNELS 6 Xposition Yposition Zposition Zrotation Xrotation Yrotation
                      End Site
                      {
                        OFFSET -0.4919 -1.6479 0.2673
                      }
                    }
                  }
                }
                JOINT LeftFinger2
                {
                  OFFSET 0.9159 -9.2044 0.2193
                  CHANNELS 6 Xposition Yposition Zposition Zrotation Xrotation Yrotation
                  JOINT LeftFinger21
                  {
                    OFFSET 0.0117 -4.1944 -0.0248
                    CHANNELS 6 Xposition Yposition Zposition Zrotation Xrotation Yrotation
                    JOINT LeftFinger22
                    {
                      OFFSET 0.0071 -2.3249 -0.0142
                      CHANNELS 6 Xposition Yposition Zposition Zrotation Xrotation Yrotation
                      End Site
                      {
                        OFFSET -0.1475 -2.0882 0.0028
                      }
                    }
                  }
                }
                JOINT LeftFinger3
                {
                  OFFSET 0.6113 -8.7231 -2.0637
                  CHANNELS 6 Xposition Yposition Zposition Zrotation Xrotation Yrotation
                  JOINT LeftFinger31
                  {
                    OFFSET -0.1927 -3.8059 -0.2383
                    CHANNELS 6 Xposition Yposition Zposition Zrotation Xrotation Yrotation
                    JOINT LeftFinger32
                    {
                      OFFSET -0.1091 -2.1688 -0.1362
                      CHANNELS 6 Xposition Yposition Zposition Zrotation Xrotation Yrotation
                      End Site
                      {
                        OFFSET -0.2358 -1.9176 -0.0906
                      }
                    }
                  }
                }
                JOINT LeftFinger4
                {
                  OFFSET -0.6151 -8.0947 -3.5641
                  CHANNELS 6 Xposition Yposition Zposition Zrotation Xrotation Yrotation
                  JOINT LeftFinger41
                  {
                    OFFSET -0.4882 -2.341 -0.6462
                    CHANNELS 6 Xposition Yposition Zposition Zrotation Xrotation Yrotation
                    JOINT LeftFinger42
                    {
                      OFFSET -0.3575 -1.7167 -0.4742
                      CHANNELS 6 Xposition Yposition Zposition Zrotation Xrotation Yrotation
                      End Site
                      {
                        OFFSET -0.4187 -1.5237 -0.3496
                      }
                    }
                  }
                }
                JOINT LeftFinger0
                {
                  OFFSET -1.42 -1.8761 1.4223
                  CHANNELS 6 Xposition Yposition Zposition Zrotation Xrotation Yrotation
                  JOINT LeftFinger01
                  {
                    OFFSET -1.1471 -3.4929 2.6334
                    CHANNELS 6 Xposition Yposition Zposition Zrotation Xrotation Yrotation
                    JOINT LeftFinger02
                    {
                      OFFSET -0.823 -2.3 1.6571
                      CHANNELS 6 Xposition Yposition Zposition Zrotation Xrotation Yrotation
                      End Site
                      {
                        OFFSET -0.5822 -1.6914 1.1582
                      }
                    }
                  }
                }
              }
            }
          }
        }
        JOINT RightCollar
        {
          OFFSET -2.2603 21.606 7.4023
          CHANNELS 6 Xposition Yposition Zposition Zrotation Xrotation Yrotation
          JOINT RightShoulder
          {
            OFFSET -13.5187 -1.1334 -5.0155
            CHANNELS 6 Xposition Yposition Zposition Zrotation Xrotation Yrotation
            JOINT RightElbow
            {
              OFFSET 0.0994 -28.0499 -0.2431
              CHANNELS 6 Xposition Yposition Zposition Zrotation Xrotation Yrotation
              JOINT RightWrist
              {
                OFFSET -0.0679 -23.3996 -0.1402
                CHANNELS 6 Xposition Yposition Zposition Zrotation Xrotation Yrotation
                JOINT RightFinger1
                {
                  OFFSET -0.7932 -9.0691 2.5189
                  CHANNELS 6 Xposition Yposition Zposition Zrotation Xrotation Yrotation
                  JOINT RightFinger11
                  {
                    OFFSET 0.8272 -3.3923 0.5977
                    CHANNELS 6 Xposition Yposition Zposition Zrotation Xrotation Yrotation
                    JOINT RightFinger12
                    {
                      OFFSET 0.565 -2.3158 0.4082
                      CHANNELS 6 Xposition Yposition Zposition Zrotation Xrotation Yrotation
                      End Site
                      {
                        OFFSET 0.4919 -1.6479 0.2673
                      }
                    }
                  }
                }
                JOINT RightFinger2
                {
                  OFFSET -0.916 -9.2044 0.2193
                  CHANNELS 6 Xposition Yposition Zposition Zrotation Xrotation Yrotation
                  JOINT RightFinger21
                  {
                    OFFSET -0.0117 -4.1944 -0.0248
                    CHANNELS 6 Xposition Yposition Zposition Zrotation Xrotation Yrotation
                    JOINT RightFinger22
                    {
                      OFFSET -0.0071 -2.3249 -0.0142
                      CHANNELS 6 Xposition Yposition Zposition Zrotation Xrotation Yrotation
                      End Site
                      {
                        OFFSET 0.1475 -2.0882 0.0028
                      }
                    }
                  }
                }
                JOINT RightFinger3
                {
                  OFFSET -0.6113 -8.7231 -2.0637
                  CHANNELS 6 Xposition Yposition Zposition Zrotation Xrotation Yrotation
                  JOINT RightFinger31
                  {
                    OFFSET 0.1927 -3.8059 -0.2383
                    CHANNELS 6 Xposition Yposition Zposition Zrotation Xrotation Yrotation
                    JOINT RightFinger32
                    {
                      OFFSET 0.1091 -2.1688 -0.1362
                      CHANNELS 6 Xposition Yposition Zposition Zrotation Xrotation Yrotation
                      End Site
                      {
                        OFFSET 0.2358 -1.9176 -0.0906
                      }
                    }
                  }
                }
                JOINT RightFinger4
                {
                  OFFSET 0.6151 -8.0947 -3.564
                  CHANNELS 6 Xposition Yposition Zposition Zrotation Xrotation Yrotation
                  JOINT RightFinger41
                  {
                    OFFSET 0.4882 -2.341 -0.6462
                    CHANNELS 6 Xposition Yposition Zposition Zrotation Xrotation Yrotation
                    JOINT RightFinger42
                    {
                      OFFSET 0.3574 -1.7166 -0.4742
                      CHANNELS 6 Xposition Yposition Zposition Zrotation Xrotation Yrotation
                      End Site
                      {
                        OFFSET 0.4187 -1.5237 -0.3496
                      }
                    }
                  }
                }
                JOINT RightFinger0
                {
                  OFFSET 1.4199 -1.8761 1.4221
                  CHANNELS 6 Xposition Yposition Zposition Zrotation Xrotation Yrotation
                  JOINT RightFinger01
                  {
                    OFFSET 1.1472 -3.4929 2.6336
                    CHANNELS 6 Xposition Yposition Zposition Zrotation Xrotation Yrotation
                    JOINT RightFinger02
                    {
                      OFFSET 0.8229 -2.3 1.6571
                      CHANNELS 6 Xposition Yposition Zposition Zrotation Xrotation Yrotation
                      End Site
                      {
                        OFFSET 0.5822 -1.6914 1.1582
                      }
                    }
                  }
                }
              }
            }
          }
        }
      }
    }
  }
  JOINT RightHip
  {
    OFFSET -9.412 3.9771 -0.7758
    CHANNELS 6 Xposition Yposition Zposition Zrotation Xrotation Yrotation
    JOINT RightKnee
    {
      OFFSET -0.7531 -40.938 0
      CHANNELS 6 Xposition Yposition Zposition Zrotation Xrotation Yrotation
      JOINT RightAnkle
      {
        OFFSET 0 -40.1986 0
        CHANNELS 6 Xposition Yposition Zposition Zrotation Xrotation Yrotation
        JOINT RightToe
        {
          OFFSET 0 -4.4182 9.239
          CHANNELS 6 Xposition Yposition Zposition Zrotation Xrotation Yrotation
          End Site
          {
            OFFSET 0 0 6.1981
          }
        }
      }
    }
  }
  JOINT LeftHip
  {
    OFFSET 9.4119 3.9773 -0.7758
    CHANNELS 6 Xposition Yposition Zposition Zrotation Xrotation Yrotation
    JOINT LeftKnee
    {
      OFFSET 0.7532 -40.9383 0
      CHANNELS 6 Xposition Yposition Zposition Zrotation Xrotation Yrotation
      JOINT LeftAnkle
      {
        OFFSET 0 -40.1986 0
        CHANNELS 6 Xposition Yposition Zposition Zrotation Xrotation Yrotation
        JOINT LeftToe
        {
          OFFSET 0 -4.4182 9.239
          CHANNELS 6 Xposition Yposition Zposition Zrotation Xrotation Yrotation
          End Site
          {
            OFFSET 0 0 6.1981
          }
        }
      }
    }
  }
}
MOTION
Frames:	4
Frame Time:	0.0333333
-6.0588 12.4666 -4.63 2.88794e-007 -17.8413 1.88015e-006 0 8.7983 -4.7612 0.196173 5.75949 2.99943 0 8.0291 0.4195 0.0880429 11.5213 6.025 0 9.9351 -2.2114 0.0880416 11.5214 6.02502 -4.44089e-016 22.3885 -0.4656 -16.9601 -27.4464 -21.0019 -0.0001 12.643 3.4389 -12.9818 5.45376 -5.64541 2.2603 21.606 7.4023 25.3978 -0.697228 -84.1968 13.5163 -1.1332 -5.0146 55.3254 -0.162485 32.9941 -0.0995 -28.05 -0.2431 8.14916 -72.4321 71.735 0.0679 -23.3996 -0.1402 -20.2762 13.6895 -30.4604 0.7932 -9.069 2.5189 4.57789e-006 3.66767e-006 -2.66334e-006 -0.8272 -3.3923 0.5977 -2.18102e-006 -1.49644e-006 1.86774e-006 -0.5649 -2.3158 0.4082 4.24838e-031 4.37326e-015 -5.56597e-015 0.9159 -9.2044 0.2193 4.57789e-006 3.66767e-006 -2.66334e-006 0.0117 -4.1944 -0.0248 -0.0128324 0.00232931 8.07613e-005 0.0071 -2.3249 -0.0142 5.60372e-007 4.45501e-007 -1.5425e-006 0.6113 -8.7231 -2.0637 4.57789e-006 3.66767e-006 -2.66334e-006 -0.1927 -3.8059 -0.2383 -0.016107 0.00300267 0.00085009 -0.1091 -2.1688 -0.1362 5.08016e-006 -3.88818e-007 9.66505e-008 -0.6151 -8.0947 -3.5641 4.57789e-006 3.66767e-006 -2.66334e-006 -0.4882 -2.341 -0.6462 -0.012575 0.00311744 0.00281214 -0.3575 -1.7167 -0.4742 -4.00758e-006 -7.44322e-006 -8.01971e-006 -1.42 -1.8761 1.4223 4.57789e-006 3.66767e-006 -2.66334e-006 -1.1471 -3.4929 2.6334 -2.18102e-006 -1.49644e-006 1.86774e-006 -0.823 -2.3 1.6571 4.24838e-031 4.37326e-015 -5.56597e-015 -2.2603 21.606 7.4023 -3.72023 -27.8424 16.4575 -13.5187 -1.1334 -5.0155 -14.376 -15.3149 -11.2436 0.0994 -28.0499 -0.2431 -10.052 -41.1601 -4.22498 -0.0679 -23.3996 -0.1402 64.5645 25.2915 -0.0481892 -0.7932 -9.0691 2.5189 -0 -1.98785e-015 -0 0.8272 -3.3923 0.5977 1.76556e-031 -6.36111e-015 1.59028e-015 0.565 -2.3158 0.4082 1.59028e-015 -1.27222e-014 -1.59028e-015 -0.916 -9.2044 0.2193 -0 -1.98785e-015 -0 -0.0117 -4.1944 -0.0248 0.0129543 0.00234917 -9.96881e-005 -0.0071 -2.3249 -0.0142 -1.76002e-006 2.66492e-006 7.85092e-007 -0.6113 -8.7231 -2.0637 -0 -1.98785e-015 -0 0.1927 -3.8059 -0.2383 0.016341 0.0030736 -0.00088409 0.1091 -2.1688 -0.1362 3.18055e-015 8.34896e-015 3.18055e-015 0.6151 -8.0947 -3.564 -0 -1.98785e-015 -0 0.4882 -2.341 -0.6462 0.0145674 0.00368814 -0.0032641 0.3574 -1.7166 -0.4742 -3.48558e-006 2.14573e-006 -1.2256e-006 1.4199 -1.8761 1.4221 -0 -1.98785e-015 -0 1.1472 -3.4929 2.6336 1.76556e-031 -6.36111e-015 1.59028e-015 0.8229 -2.3 1.6571 1.59028e-015 -1.27222e-014 -1.59028e-015 -9.412 3.9771 -0.7758 -88.4963 -37.8643 -99.5245 -0.7531 -40.938 0 -166.196 41.4292 152.349 -3.55271e-015 -40.1986 -3.55271e-015 14.9131 -34.1304 18.3716 5.32907e-015 -4.4182 9.239 5.21692e-006 -4.04632e-006 -1.10221e-005 9.4119 3.9773 -0.7758 101.802 -27.9371 98.4533 0.7532 -40.9383 -3.55271e-015 162.897 49.7811 -150.712 -1.77636e-015 -40.1986 -3.55271e-015 -14.2982 -12.5122 -26.8988 -1.77636e-015 -4.4182 9.239 1.05246e-005 4.12406e-007 2.29752e-006 
-6.05809 12.3202 -4.70568 9.22005e-008 -17.0109 -5.2785e-007 0 8.7983 -4.7612 0.162501 5.47915 3.005 0 8.0291 0.4195 0.0349117 10.9593 6.03606 8.88178e-016 9.9351 -2.2114 0.0349103 10.9593 6.03607 0 22.3885 -0.4656 -16.9621 -27.4587 -21.0061 -0.0001 12.643 3.4389 -13.0694 5.84562 -5.64716 2.2603 21.606 7.4023 25.4909 -0.267509 -84.2968 13.5163 -1.1332 -5.0146 55.1585 -0.164514 32.9676 -0.0995 -28.05 -0.2431 8.00752 -72.641 71.6079 0.0679 -23.3996 -0.1402 -20.2762 13.6894 -30.4604 0.7932 -9.069 2.5189 3.18055e-015 -7.55382e-015 -0 -0.8272 -3.3923 0.5977 3.18055e-015 -6.36111e-015 7.95139e-016 -0.5649 -2.3158 0.4082 -5.5725e-007 -1.50496e-006 1.54402e-006 0.9159 -9.2044 0.2193 3.18055e-015 -7.55382e-015 -0 0.0117 -4.1944 -0.0248 -0.0127954 0.00230816 8.37003e-005 0.0071 -2.3249 -0.0142 -4.58699e-006 -2.00786e-005 -6.46125e-006 0.6113 -8.7231 -2.0637 3.18055e-015 -7.55382e-015 -0 -0.1927 -3.8059 -0.2383 -0.0160821 0.00299299 0.000853824 -0.1091 -2.1688 -0.1362 1.67239e-006 -1.97277e-006 -4.632e-006 -0.6151 -8.0947 -3.5641 3.18055e-015 -7.55382e-015 -0 -0.4882 -2.341 -0.6462 -0.0125688 0.00310996 0.00280351 -0.3575 -1.7167 -0.4742 3.9688e-006 -2.37865e-006 3.16915e-006 -1.42 -1.8761 1.4223 3.18055e-015 -7.55382e-015 -0 -1.1471 -3.4929 2.6334 3.18055e-015 -6.36111e-015 7.95139e-016 -0.823 -2.3 1.6571 -5.5725e-007 -1.50496e-006 1.54402e-006 -2.2603 21.606 7.4023 -3.64518 -27.3002 16.296 -13.5187 -1.1334 -5.0155 -14.1962 -15.3152 -11.1706 0.0994 -28.0499 -0.2431 -10.068 -41.1538 -4.2362 -0.0679 -23.3996 -0.1402 64.5759 25.2842 -0.0618804 -0.7932 -9.0691 2.5189 -3.18055e-015 -9.14409e-015 1.59028e-015 0.8272 -3.3923 0.5977 3.18579e-008 -9.86662e-006 -2.81034e-006 0.565 -2.3158 0.4082 1.59028e-015 5.96354e-015 3.18055e-015 -0.916 -9.2044 0.2193 -3.18055e-015 -9.14409e-015 1.59028e-015 -0.0117 -4.1944 -0.0248 0.012946 0.00233536 -9.30025e-005 -0.0071 -2.3249 -0.0142 3.03261e-006 -4.24439e-005 1.51687e-005 -0.6113 -8.7231 -2.0637 -3.18055e-015 -9.14409e-015 1.59028e-015 0.1927 -3.8059 -0.2383 0.0163751 0.00303315 -0.000876959 0.1091 -2.1688 -0.1362 1.10348e-031 1.98785e-015 -3.18055e-015 0.6151 -8.0947 -3.564 -3.18055e-015 -9.14409e-015 1.59028e-015 0.4882 -2.341 -0.6462 0.0145943 0.00369204 -0.00326858 0.3574 -1.7166 -0.4742 -9.93129e-032 -3.57812e-015 -1.59028e-015 1.4199 -1.8761 1.4221 -3.18055e-015 -9.14409e-015 1.59028e-015 1.1472 -3.4929 2.6336 3.18579e-008 -9.86662e-006 -2.81034e-006 0.8229 -2.3 1.6571 1.59028e-015 5.96354e-015 3.18055e-015 -9.412 3.9771 -0.7758 -89.3129 -38.4245 -100.512 -0.7531 -40.938 3.55271e-015 -166.207 41.408 152.352 1.77636e-015 -40.1986 0 15.2101 -34.0829 18.0873 -1.77636e-015 -4.4182 9.239 3.2581e-006 1.80414e-006 -2.89107e-008 9.4119 3.9773 -0.7758 102.375 -28.3717 99.1744 0.7532 -40.9383 0 162.898 49.7793 -150.71 -8.88179e-016 -40.1986 7.10543e-015 -14.7571 -12.4545 -26.5802 -1.77636e-015 -4.4182 9.239 8.39952e-007 -1.66401e-006 -2.2929e-006 
-6.05741 12.1751 -4.78245 7.53828e-008 -16.1807 -5.06297e-007 -8.88179e-016 8.7983 -4.7612 0.128917 5.19888 3.01007 0 8.0291 0.4195 -0.0179129 10.3973 6.04596 0 9.9351 -2.2114 -0.0179142 10.3974 6.04597 0 22.3885 -0.4656 -16.964 -27.4711 -21.0103 -0.0001 12.643 3.4389 -13.0577 5.33054 -5.76724 2.2603 21.606 7.4023 25.5847 0.162032 -84.3975 13.5163 -1.1332 -5.0146 55.0216 -0.241709 32.9416 -0.0995 -28.05 -0.2431 7.84229 -72.7712 71.4396 0.0679 -23.3996 -0.1402 -20.2762 13.6895 -30.4604 0.7932 -9.069 2.5189 3.18055e-015 2.06736e-014 -7.95139e-016 -0.8272 -3.3923 0.5977 5.13284e-006 4.88541e-006 -4.2431e-006 -0.5649 -2.3158 0.4082 -5.64039e-006 1.09412e-007 1.4798e-006 0.9159 -9.2044 0.2193 3.18055e-015 2.06736e-014 -7.95139e-016 0.0117 -4.1944 -0.0248 -0.0127953 0.00231561 7.40839e-005 0.0071 -2.3249 -0.0142 5.16042e-006 1.04257e-005 4.89924e-006 0.6113 -8.7231 -2.0637 3.18055e-015 2.06736e-014 -7.95139e-016 -0.1927 -3.8059 -0.2383 -0.0160442 0.00298833 0.000864162 -0.1091 -2.1688 -0.1362 2.72421e-006 2.11332e-006 -3.41863e-006 -0.6151 -8.0947 -3.5641 3.18055e-015 2.06736e-014 -7.95139e-016 -0.4882 -2.341 -0.6462 -0.0125966 0.00312495 0.00282527 -0.3575 -1.7167 -0.4742 5.08759e-006 -3.95608e-007 6.5677e-008 -1.42 -1.8761 1.4223 3.18055e-015 2.06736e-014 -7.95139e-016 -1.1471 -3.4929 2.6334 5.13284e-006 4.88541e-006 -4.2431e-006 -0.823 -2.3 1.6571 -5.64039e-006 1.09412e-007 1.4798e-006 -2.2603 21.606 7.4023 -3.56879 -26.7583 16.1345 -13.5187 -1.1334 -5.0155 -14.0165 -15.3153 -11.0976 0.0994 -28.0499 -0.2431 -10.0839 -41.1474 -4.2474 -0.0679 -23.3996 -0.1402 64.5872 25.2769 -0.075623 -0.7932 -9.0691 2.5189 3.64147e-031 -1.31198e-014 1.59028e-015 0.8272 -3.3923 0.5977 2.97939e-031 -1.07344e-014 1.59028e-015 0.565 -2.3158 0.4082 -1.59028e-015 -1.15295e-014 1.59028e-015 -0.916 -9.2044 0.2193 3.64147e-031 -1.31198e-014 1.59028e-015 -0.0117 -4.1944 -0.0248 0.0129322 0.0023242 -8.25664e-005 -0.0071 -2.3249 -0.0142 -6.36111e-015 -1.98785e-015 -1.59028e-015 -0.6113 -8.7231 -2.0637 3.64147e-031 -1.31198e-014 1.59028e-015 0.1927 -3.8059 -0.2383 0.0162808 0.00302934 -0.000864748 0.1091 -2.1688 -0.1362 4.77083e-015 7.95139e-016 1.59028e-015 0.6151 -8.0947 -3.564 3.64147e-031 -1.31198e-014 1.59028e-015 0.4882 -2.341 -0.6462 0.0145929 0.00370581 -0.00327136 0.3574 -1.7166 -0.4742 2.87606e-006 -4.38249e-006 3.81247e-007 1.4199 -1.8761 1.4221 3.64147e-031 -1.31198e-014 1.59028e-015 1.1472 -3.4929 2.6336 2.97939e-031 -1.07344e-014 1.59028e-015 0.8229 -2.3 1.6571 -1.59028e-015 -1.15295e-014 1.59028e-015 -9.412 3.9771 -0.7758 -90.1475 -38.9732 -101.516 -0.7531 -40.938 0 -166.219 41.3867 152.355 1.77636e-015 -40.1986 3.55271e-015 15.5072 -34.037 17.8031 -1.77636e-015 -4.4182 9.239 -0 0 3.18055e-015 9.4119 3.9773 -0.7758 102.956 -28.7998 99.903 0.7532 -40.9383 0 162.9 49.7773 -150.708 -8.88178e-016 -40.1986 3.55271e-015 -15.2163 -12.3995 -26.2613 0 -4.4182 9.239 7.85257e-007 -9.1147e-007 2.29217e-006 
-6.05674 12.0313 -4.86029 -1.7578e-007 -15.3508 -5.9453e-008 0 8.7983 -4.7612 0.0954189 4.91873 3.01465 -8.88178e-016 8.0291 0.4195 -0.0704475 9.83562 6.05472 0 9.9351 -2.2114 -0.0704503 9.83565 6.05475 0 22.3885 -0.4656 -16.966 -27.4834 -21.0146 -0.0001 12.643 3.4389 -13.0471 4.81408 -5.88743 2.2603 21.606 7.4023 25.6793 0.591299 -84.499 13.5163 -1.1332 -5.0146 54.894 -0.340536 32.9155 -0.0995 -28.05 -0.2431 7.66771 -72.8782 71.2577 0.0679 -23.3996 -0.1402 -20.2762 13.6894 -30.4605 0.7932 -9.069 2.5189 0 1.59028e-015 -0 -0.8272 -3.3923 0.5977 -3.18055e-015 -5.96354e-015 1.59028e-015 -0.5649 -2.3158 0.4082 3.18055e-015 1.98785e-015 -0 0.9159 -9.2044 0.2193 0 1.59028e-015 -0 0.0117 -4.1944 -0.0248 -0.0128336 0.00232289 8.05508e-005 0.0071 -2.3249 -0.0142 3.31043e-032 2.38542e-015 -7.95139e-016 0.6113 -8.7231 -2.0637 0 1.59028e-015 -0 -0.1927 -3.8059 -0.2383 -0.0160738 0.00300611 0.000861215 -0.1091 -2.1688 -0.1362 -8.9542e-006 -1.04197e-005 -2.67614e-006 -0.6151 -8.0947 -3.5641 0 1.59028e-015 -0 -0.4882 -2.341 -0.6462 -0.0124981 0.00309732 0.00281121 -0.3575 -1.7167 -0.4742 1.32417e-031 3.18055e-015 -2.38542e-015 -1.42 -1.8761 1.4223 0 1.59028e-015 -0 -1.1471 -3.4929 2.6334 -3.18055e-015 -5.96354e-015 1.59028e-015 -0.823 -2.3 1.6571 3.18055e-015 1.98785e-015 -0 -2.2603 21.606 7.4023 -3.49109 -26.2167 15.9729 -13.5187 -1.1334 -5.0155 -13.8368 -15.3152 -11.0246 0.0994 -28.0499 -0.2431 -10.0997 -41.1411 -4.25858 -0.0679 -23.3996 -0.1402 64.5985 25.2697 -0.0893595 -0.7932 -9.0691 2.5189 1.32946e-005 -3.72271e-005 1.37056e-005 0.8272 -3.3923 0.5977 -9.9144e-006 2.52682e-005 -1.2994e-005 0.565 -2.3158 0.4082 -5.88972e-006 1.6172e-005 1.6013e-006 -0.916 -9.2044 0.2193 1.32946e-005 -3.72271e-005 1.37056e-005 -0.0117 -4.1944 -0.0248 0.0129117 0.00232548 -8.99214e-005 -0.0071 -2.3249 -0.0142 -8.38642e-031 -7.55382e-015 -6.36111e-015 -0.6113 -8.7231 -2.0637 1.32946e-005 -3.72271e-005 1.37056e-005 0.1927 -3.8059 -0.2383 0.0162668 0.00305131 -0.000881513 0.1091 -2.1688 -0.1362 1.32417e-031 -2.38542e-015 3.18055e-015 0.6151 -8.0947 -3.564 1.32946e-005 -3.72271e-005 1.37056e-005 0.4882 -2.341 -0.6462 0.014554 0.0036891 -0.00326463 0.3574 -1.7166 -0.4742 -4.78914e-006 3.23281e-005 -1.71199e-005 1.4199 -1.8761 1.4221 1.32946e-005 -3.72271e-005 1.37056e-005 1.1472 -3.4929 2.6336 -9.9144e-006 2.52682e-005 -1.2994e-005 0.8229 -2.3 1.6571 -5.88972e-006 1.6172e-005 1.6013e-006 -9.412 3.9771 -0.7758 -91 -39.5102 -102.537 -0.7531 -40.938 0 -166.231 41.365 152.359 0 -40.1986 0 15.8045 -33.9929 17.5188 0 -4.4182 9.239 4.355e-006 -1.97567e-006 -1.32631e-005 9.4119 3.9773 -0.7758 103.545 -29.2212 100.639 0.7532 -40.9383 -3.55271e-015 162.901 49.7752 -150.707 -1.77636e-015 -40.1986 -3.55271e-015 -15.6756 -12.3472 -25.9421 -3.55271e-015 -4.4182 9.239 -3.25002e-006 9.51422e-007 1.43766e-008 
